<svg xmlns="http://www.w3.org/2000/svg" xmlns:xlink="http://www.w3.org/1999/xlink" width="25" height="19.962" viewBox="0 0 25 19.962"><defs><style>.a,.c{fill:none;}.b{clip-path:url(#a);}.c{stroke:#fff;stroke-linecap:round;stroke-miterlimit:10;}</style><clipPath id="a"><rect class="a" width="25" height="19.962"/></clipPath></defs><g class="b"><path class="c" d="M175.394,177.9H156.941a2.777,2.777,0,0,1-2.774-2.773V163.873a2.776,2.776,0,0,1,2.774-2.773h3.764l.33-1.112a1.368,1.368,0,0,1,1.345-1.055h7.573a1.4,1.4,0,0,1,1.348,1.061l.008.037.3,1.069h3.784a2.775,2.775,0,0,1,2.773,2.773v11.249A2.777,2.777,0,0,1,175.394,177.9Zm-9.226-13.6a4.942,4.942,0,1,0,4.942,4.943A4.948,4.948,0,0,0,166.168,164.291Zm8.416.256h.028" transform="translate(-153.667 -158.433)"/></g></svg>