<svg xmlns="http://www.w3.org/2000/svg" xmlns:xlink="http://www.w3.org/1999/xlink" width="32.698" height="25" viewBox="0 0 32.698 25"><defs><style>.a,.c,.d{fill:none;}.b{clip-path:url(#a);}.c,.d{stroke:#fff;stroke-miterlimit:10;}.d{stroke-linecap:round;}</style><clipPath id="a"><rect class="a" width="32.698" height="25"/></clipPath></defs><g class="b"><circle class="c" cx="3.623" cy="3.623" r="3.623" transform="translate(4.575 0.5)"/><circle class="c" cx="3.623" cy="3.623" r="3.623" transform="translate(15.896 0.953)"/><path class="d" d="M-52.849,28.982a7.7,7.7,0,0,1,7.7-7.7,7.7,7.7,0,0,1,7.7,7.7" transform="translate(53.349 -10.369)"/><path class="d" d="M-37.314,22.365a7.67,7.67,0,0,1,3.937-1.081,7.677,7.677,0,0,1,5.683,2.506" transform="translate(53.349 -10.369)"/><circle class="d" cx="4.528" cy="4.528" r="4.528" transform="translate(23.141 15.443)"/><line class="d" y2="3.623" transform="translate(27.67 18.16)"/><line class="d" x1="3.623" transform="translate(25.858 19.972)"/></g></svg>