<svg xmlns="http://www.w3.org/2000/svg" xmlns:xlink="http://www.w3.org/1999/xlink" width="24" height="24" viewBox="0 0 24 24"><defs><style>.a,.c{fill:none;}.b{clip-path:url(#a);}.c{stroke:#000;}</style><clipPath id="a"><rect class="a" width="24" height="24"/></clipPath></defs><g class="b"><g transform="translate(2 2)"><path class="c" d="M802.154,447.242l-6.624,6.568a1.743,1.743,0,0,1-2.45-.021h0a1.708,1.708,0,0,1-.021-2.429L802.8,441.7a3.358,3.358,0,0,1,4.72.04h0a3.29,3.29,0,0,1,.04,4.68l-9.8,9.716a4.86,4.86,0,0,1-6.832-.058h0a4.762,4.762,0,0,1-.058-6.774l10.046-9.961" transform="translate(-788.984 -438.992)"/></g><rect class="a" width="24" height="24"/></g></svg>