<svg xmlns="http://www.w3.org/2000/svg" width="22.886" height="31.092" viewBox="0 0 22.886 31.092"><defs><style>.a{fill:none;stroke:#f90;stroke-linecap:round;stroke-linejoin:round;}</style></defs><g transform="translate(-105.485 -205.484)"><path class="a" d="M19.251,26.508h0a3.555,3.555,0,0,0-3.044-.032h0a3.546,3.546,0,0,1-4.841-2.067h0a3.552,3.552,0,0,0-2.129-2.174h0a3.548,3.548,0,0,1-1.964-4.883h0a3.547,3.547,0,0,0,.034-3.044h0a3.546,3.546,0,0,1,2.065-4.84h0a3.561,3.561,0,0,0,2.176-2.129h0a3.545,3.545,0,0,1,4.884-1.964h0a3.548,3.548,0,0,0,3.044.032h0a3.546,3.546,0,0,1,4.841,2.067h0a3.546,3.546,0,0,0,2.129,2.174h0a3.549,3.549,0,0,1,1.964,4.885h0a3.542,3.542,0,0,0-.034,3.042h0a3.548,3.548,0,0,1-2.065,4.842h0a3.55,3.55,0,0,0-2.176,2.129h0A3.546,3.546,0,0,1,19.251,26.508Z" transform="translate(99.086 200.985)"/><ellipse class="a" cx="5.507" cy="5.506" rx="5.507" ry="5.506" transform="translate(111.421 211.421)"/><path class="a" d="M12,12.441" transform="translate(104.928 209.511)"/><path class="a" d="M8.811,13.648V25.179l6.852-3.654,6.852,3.654V13.648" transform="translate(101.265 210.897)"/></g></svg>