<svg xmlns="http://www.w3.org/2000/svg" xmlns:xlink="http://www.w3.org/1999/xlink" width="11.189" height="15.008" viewBox="0 0 11.189 15.008"><defs><style>.a,.c{fill:none;}.b{clip-path:url(#a);}.c{stroke:#fff;stroke-linecap:round;stroke-linejoin:round;}</style><clipPath id="a"><rect class="a" width="11.189" height="15.008"/></clipPath></defs><g class="b"><path class="c" d="M12.656,15.02h0a1.655,1.655,0,0,0-1.417-.015h0a1.651,1.651,0,0,1-2.253-.962h0a1.653,1.653,0,0,0-.991-1.012h0a1.651,1.651,0,0,1-.914-2.273h0A1.651,1.651,0,0,0,7.1,9.341h0a1.651,1.651,0,0,1,.961-2.253h0A1.657,1.657,0,0,0,9.071,6.1h0a1.65,1.65,0,0,1,2.273-.914h0a1.651,1.651,0,0,0,1.417.015h0a1.651,1.651,0,0,1,2.253.962h0A1.651,1.651,0,0,0,16,7.172h0a1.652,1.652,0,0,1,.914,2.274h0a1.649,1.649,0,0,0-.016,1.416h0a1.652,1.652,0,0,1-.961,2.254h0a1.652,1.652,0,0,0-1.013.991h0A1.65,1.65,0,0,1,12.656,15.02Z" transform="translate(-6.406 -4.507)"/><circle class="c" cx="2.563" cy="2.563" r="2.563" transform="translate(3.031 3.031)"/><path class="c" d="M12,12.441" transform="translate(-6.406 -4.507)"/><path class="c" d="M8.811,13.648v5.367L12,17.314l3.189,1.7V13.648" transform="translate(-6.406 -4.507)"/></g></svg>