<svg xmlns="http://www.w3.org/2000/svg" xmlns:xlink="http://www.w3.org/1999/xlink" width="24" height="24" viewBox="0 0 24 24"><defs><style>.a,.c{fill:none;}.b{clip-path:url(#a);}.c{stroke:#7377ee;stroke-linecap:round;stroke-linejoin:round;}</style><clipPath id="a"><rect class="a" width="24" height="24"/></clipPath></defs><g class="b"><path class="c" d="M64.362,566.539H58.656a1.1,1.1,0,0,1-1.1-1.1h0v-13.8a1.1,1.1,0,0,1,1.1-1.1h6.4l4.5,4.263v7.684" transform="translate(-52.556 -548.039)"/><path class="c" d="M65.073,550.555v4.263h4.5" transform="translate(-52.556 -548.039)"/><path class="c" d="M60.573,559.555" transform="translate(-52.556 -548.039)"/><line class="c" x2="7.167" transform="translate(7.392 8.933)"/><line class="c" x2="7.167" transform="translate(7.392 11.516)"/><line class="c" x2="2.708" transform="translate(7.392 14.099)"/><path class="c" d="M70.479,567.69H67.948l-2.375,1.865v-2a.911.911,0,0,1-1-.816.843.843,0,0,1,0-.142v-2.948a1.1,1.1,0,0,1,1.094-1.094h4.812a1.1,1.1,0,0,1,1.094,1.094V566.6A1.1,1.1,0,0,1,70.479,567.69Z" transform="translate(-52.556 -548.039)"/><rect class="a" width="24" height="24"/></g></svg>