<svg xmlns="http://www.w3.org/2000/svg" xmlns:xlink="http://www.w3.org/1999/xlink" width="24.02" height="24" viewBox="0 0 24.02 24"><defs><style>.a{fill:none;}.b{clip-path:url(#a);}.c,.d,.e,.f{fill:#fff;stroke:#040506;}.c,.d{stroke-miterlimit:10;}.d,.f{stroke-linecap:round;}.e,.f{stroke-linejoin:round;}</style><clipPath id="a"><rect class="a" width="24.02" height="24"/></clipPath></defs><g class="b"><g transform="translate(0.01 -0.104)"><path class="c" d="M21.483,13.485H15.9l-2.493,1.266c-.1.078-1.465,1.825-1.465,1.7V13.728H10.314A2.028,2.028,0,0,1,8.287,11.71V3.622A2.028,2.028,0,0,1,10.314,1.6H21.483A2.028,2.028,0,0,1,23.51,3.622v7.845A2.028,2.028,0,0,1,21.483,13.485Z"/><path class="d" d="M11.629,4.946"/><line class="d" x2="7.426" transform="translate(13.114 7.545)"/><line class="d" x2="7.426" transform="translate(13.114 10.515)"/><line class="d" x2="7.426" transform="translate(13.114 4.574)"/><line class="d" transform="translate(11.629 4.574)"/><line class="d" x2="0.594" transform="translate(11.257 7.545)"/></g><g transform="translate(0.01 -0.104)"><path class="e" d="M14.144,19.426H7.975L4.233,22.4v-2.97h-1.8A1.9,1.9,0,0,1,.49,17.578V9.393A1.9,1.9,0,0,1,2.431,7.545H14.144a1.9,1.9,0,0,1,1.94,1.848v8.185A1.9,1.9,0,0,1,14.144,19.426Z"/><line class="d" x2="8.911" transform="translate(3.832 10.515)"/><path class="d" d="M20.409,10.274"/><path class="d" d="M11.017,10.274"/><line class="d" x2="5.941" transform="translate(6.802 13.485)"/><line class="d" x2="0.594" transform="translate(3.832 13.485)"/><line class="f" x1="6.535" transform="translate(3.832 16.455)"/><line class="f" transform="translate(12.743 16.455)"/></g><rect class="a" width="24" height="24"/></g></svg>