<svg xmlns="http://www.w3.org/2000/svg" width="59.988" height="61.015" viewBox="0 0 59.988 61.015"><defs><style>.a{fill:#a2a6b1;fill-rule:evenodd;}</style></defs><path class="a" d="M380.948,880.69a2.04,2.04,0,0,0,2.041,2.04h7.98A2.026,2.026,0,0,0,393,880.7V854.53a2.026,2.026,0,0,0-2.026-2.026h-7.98a2.04,2.04,0,0,0-2.041,2.04V880.69Zm-45.868-9.377-.415.511a6.593,6.593,0,0,0-1.652,4.5,6.791,6.791,0,0,0,1.536,3.9l.416.524-.254.613a5.811,5.811,0,0,0,1.437,6.857c1.717,1.512,4.606,2.279,8.586,2.279.5,0,1.027-.012,1.564-.037a43.66,43.66,0,0,0,6.542-.809l.142-.027h.024c.593-.1,1.249-.235,2-.4l1.371-.295.088,1.354c.073,1.125-.176,3.449-1.772,8.129-1.8,5.275-1.733,9.246.187,11.8A7.634,7.634,0,0,0,360.89,913a2.286,2.286,0,0,0,1.737-.762c1.281-1.437.6-4.314.938-5.966.449-2.069,2.412-12.493,11.571-19.889a5.9,5.9,0,0,0,2.547-3.642c.577-1.321.637-28.053.046-28.7s-2.917-.919-2.917-.919a143.679,143.679,0,0,0-16.124-.974c-.667,0-1.33.006-1.971.018H356.6c-1.676-.122-3.149-.182-4.5-.182a30.7,30.7,0,0,0-6.129.531c-3.842.788-6.439,2.316-7.717,4.541a6.717,6.717,0,0,0-.794,4.348l.089.609-.472.412a7.187,7.187,0,0,0-2.72,5.957,7.582,7.582,0,0,0,.489,2.316Z" transform="translate(-333.012 -851.99)"/></svg>