<svg xmlns="http://www.w3.org/2000/svg" xmlns:xlink="http://www.w3.org/1999/xlink" width="24" height="24" viewBox="0 0 24 24"><defs><style>.a,.c{fill:none;}.b{clip-path:url(#a);}.c{stroke:#6e767e;stroke-linecap:round;stroke-linejoin:round;}</style><clipPath id="a"><rect class="a" width="24" height="24"/></clipPath></defs><g class="b"><rect class="a" width="24" height="24"/><g transform="translate(5 4)"><path class="c" d="M19,11.688v7.364a.951.951,0,0,1-.948.948H5.948A.951.951,0,0,1,5,19.052V6.948A.951.951,0,0,1,5.948,6h7.365" transform="translate(-5 -4.5)"/><path class="c" d="M11.007,12.2" transform="translate(-5 -4.5)"/><path class="c" d="M16.5,4.5l3,3-3,3" transform="translate(-5 -4.5)"/><path class="c" d="M11.5,13A5.516,5.516,0,0,1,17,7.5h1.917" transform="translate(-5 -4.5)"/></g></g></svg>