<svg xmlns="http://www.w3.org/2000/svg" xmlns:xlink="http://www.w3.org/1999/xlink" width="24" height="24" viewBox="0 0 24 24"><defs><style>.a,.c{fill:none;}.b{clip-path:url(#a);}.c{stroke:#6e767e;stroke-linecap:round;stroke-linejoin:round;}</style><clipPath id="a"><rect class="a" width="24" height="24"/></clipPath></defs><g class="b"><g transform="translate(6 4)"><path class="c" d="M17.4,19.5H7.6a1.1,1.1,0,0,1-1.1-1.1V4.6A1.1,1.1,0,0,1,7.6,3.5H14l4.5,4.263V18.4A1.1,1.1,0,0,1,17.4,19.5Z" transform="translate(-6.5 -3.5)"/><path class="c" d="M14,3.5V7.763h4.5" transform="translate(-6.5 -3.5)"/><path class="c" d="M9.5,12.5" transform="translate(-6.5 -3.5)"/><line class="c" x2="3" transform="translate(4 9)"/><path class="c" d="M12.5,10.5l2,2-2,2" transform="translate(-6.5 -3.5)"/></g><rect class="a" width="24" height="24"/></g></svg>