<svg xmlns="http://www.w3.org/2000/svg" xmlns:xlink="http://www.w3.org/1999/xlink" width="24" height="24" viewBox="0 0 24 24"><defs><style>.a,.c{fill:none;}.b{clip-path:url(#a);}.c{stroke:#1fc551;stroke-linecap:round;stroke-linejoin:round;}.d{fill:#1fc551;}</style><clipPath id="a"><rect class="a" width="24" height="24"/></clipPath></defs><g class="b"><path class="c" d="M17.656,16.638H12.232L7.143,20.5V16.357A1.924,1.924,0,0,1,5,14.372V8.266A2.313,2.313,0,0,1,7.344,6H17.656A2.313,2.313,0,0,1,20,8.266v6.106A2.313,2.313,0,0,1,17.656,16.638Z" transform="translate(-0.5 -0.5)"/><circle class="d" cx="0.5" cy="0.5" r="0.5" transform="translate(8.5 10.5)"/><circle class="d" cx="0.5" cy="0.5" r="0.5" transform="translate(11.5 10.5)"/><circle class="d" cx="0.5" cy="0.5" r="0.5" transform="translate(14.5 10.5)"/><rect class="a" width="24" height="24"/></g></svg>