<svg xmlns="http://www.w3.org/2000/svg" xmlns:xlink="http://www.w3.org/1999/xlink" width="24" height="24" viewBox="0 0 24 24"><defs><style>.a,.c{fill:none;}.b{clip-path:url(#a);}.c,.d{stroke:#fff;stroke-miterlimit:10;}.d{fill:#fff;stroke-linecap:round;}</style><clipPath id="a"><rect class="a" width="24" height="24"/></clipPath></defs><g class="b"><path class="c" d="M17.239,9.935a5.265,5.265,0,1,0-8.9,3.807,4.238,4.238,0,0,1,1.238,3.087v.284h4.785V16.73a4.487,4.487,0,0,1,1.372-3.12A5.24,5.24,0,0,0,17.239,9.935Z" transform="translate(-0.397 -0.373)"/><line class="d" x2="4.77" transform="translate(9.18 19.332)"/><line class="d" x2="3.458" transform="translate(9.836 21.64)"/><path class="d" d="M19.8,6.174" transform="translate(-0.397 -0.373)"/><path class="d" d="M11.962,13.562" transform="translate(-0.397 -0.373)"/><line class="d" x1="1.081" y1="1.081" transform="translate(3.707 4.074)"/><line class="d" y1="1.081" x2="1.081" transform="translate(18.626 4.074)"/><line class="d" y1="1.529" transform="translate(11.578 0.5)"/><rect class="a" width="24" height="24"/></g></svg>