<svg xmlns="http://www.w3.org/2000/svg" xmlns:xlink="http://www.w3.org/1999/xlink" width="24" height="22.793" viewBox="0 0 24 22.793"><defs><style>.a,.c{fill:none;}.b{clip-path:url(#a);}.c{stroke:#0090ff;stroke-linecap:round;stroke-miterlimit:10;}</style><clipPath id="a"><rect class="a" width="24" height="22.794"/></clipPath></defs><g class="b"><path class="c" d="M12.934,3.823a4.154,4.154,0,0,1,3.633-1.231,9.831,9.831,0,0,1,2.345.507A30.024,30.024,0,0,0,23.5,4.415v16.1L18.027,18.9c-1.872-.581-3.766-.742-5.152.644" transform="translate(0 -0.432)"/><path class="c" d="M9.207,18.547a6.948,6.948,0,0,0-3.234.357L.5,20.514V4.415a19.071,19.071,0,0,0,3.707-1.02" transform="translate(0 -0.432)"/><path class="c" d="M23.5,22.726l-6.838-1.865a3.25,3.25,0,0,0-3.108.622,1.927,1.927,0,0,1-1.243.621h-.622a1.927,1.927,0,0,1-1.243-.621,3.25,3.25,0,0,0-3.108-.622L.5,22.726" transform="translate(0 -0.432)"/><path class="c" d="M20.227,6.775c.484.2.787.351.787.351" transform="translate(0 -0.432)"/><path class="c" d="M14.176,6.505c1.063-1.063,3.136-.712,4.722-.214" transform="translate(0 -0.432)"/><path class="c" d="M14.141,12.683c1.884-1.884,6.908.628,6.908.628" transform="translate(0 -0.432)"/><path class="c" d="M16.109,8.921a7.165,7.165,0,0,1,1.585.162,15.416,15.416,0,0,1,3.32,1.151" transform="translate(0 -0.432)"/><path class="c" d="M14.141,9.543a2.139,2.139,0,0,1,.7-.46" transform="translate(0 -0.432)"/><path class="c" d="M18.252,15.417a16.037,16.037,0,0,1,2.8,1.034" transform="translate(0 -0.432)"/><path class="c" d="M14.141,15.823a3.373,3.373,0,0,1,2.842-.652" transform="translate(0 -0.432)"/><path class="c" d="M4.23.932V16.473l7.459,3.108V4.662L4.23.932" transform="translate(0 -0.432)"/></g></svg>