<svg xmlns="http://www.w3.org/2000/svg" xmlns:xlink="http://www.w3.org/1999/xlink" width="24" height="24.003" viewBox="0 0 24 24.003"><defs><style>.a,.d{fill:none;}.b{clip-path:url(#a);}.c{fill:#fff;opacity:0;}.d{stroke:#6e767e;stroke-miterlimit:10;}</style><clipPath id="a"><rect class="a" width="24" height="24.003"/></clipPath></defs><g class="b"><rect class="c" width="24" height="24" transform="translate(0 0.003)"/><g transform="translate(-323 -627.497)"><path class="d" d="M21.667,19.244a8.254,8.254,0,0,1-2.417-5.835V10.785c0-3.71-1.981-6.815-5.437-7.637V2.417A1.876,1.876,0,0,0,12.3.538a1.813,1.813,0,0,0-2.115,1.788v.822C6.719,3.97,4.75,7.063,4.75,10.785v2.624a8.254,8.254,0,0,1-2.417,5.835h0v1.208H21.667V19.244Z" transform="translate(323.667 627.486)"/><path class="d" d="M12,23.458a3.015,3.015,0,0,0,3.006-3.006H8.994A3,3,0,0,0,12,23.458Z" transform="translate(323.667 627.486)"/></g></g></svg>