<svg xmlns="http://www.w3.org/2000/svg" xmlns:xlink="http://www.w3.org/1999/xlink" width="24" height="24" viewBox="0 0 24 24"><defs><style>.a,.c{fill:none;}.b{clip-path:url(#a);}.d,.e{stroke:none;}.e{fill:#f9ba0b;}</style><clipPath id="a"><rect class="a" width="24" height="24"/></clipPath></defs><g class="b"><g class="c" transform="translate(17.173 9.418)"><path class="d" d="M-5.173-5.918-3.049.621H3.827L-1.736,4.662.389,11.2-5.173,7.16-10.736,11.2l2.125-6.539L-14.173.621H-7.3Z"/><path class="e" d="M -5.173227310180664 -2.68193244934082 L -6.346776962280273 0.9298849105834961 L -6.571297645568848 1.620864868164063 L -7.297837257385254 1.620864868164063 L -11.09553813934326 1.620864868164063 L -8.023127555847168 3.853104591369629 L -7.435347557067871 4.28016471862793 L -7.659857273101807 4.971144676208496 L -8.833414077758789 8.582966804504395 L -5.761007308959961 6.350734710693359 L -5.173227310180664 5.923684597015381 L -4.585447311401367 6.350734710693359 L -1.513040542602539 8.582966804504395 L -2.686597347259521 4.971144676208496 L -2.911107540130615 4.28016471862793 L -2.32332706451416 3.853104591369629 L 0.7490835189819336 1.620864868164063 L -3.048617362976074 1.620864868164063 L -3.775157451629639 1.620864868164063 L -3.999677181243896 0.9298849105834961 L -5.173227310180664 -2.68193244934082 M -5.173227310180664 -5.918015480041504 L -3.048617362976074 0.6208648681640625 L 3.826772689819336 0.6208648681640625 L -1.735537528991699 4.662124633789063 L 0.3890829086303711 11.20100498199463 L -5.173227310180664 7.159754753112793 L -10.7355375289917 11.20100498199463 L -8.610917091369629 4.662124633789063 L -14.17322731018066 0.6208648681640625 L -7.297837257385254 0.6208648681640625 L -5.173227310180664 -5.918015480041504 Z"/></g><rect class="a" width="24" height="24"/></g></svg>