<svg xmlns="http://www.w3.org/2000/svg" xmlns:xlink="http://www.w3.org/1999/xlink" width="24" height="24" viewBox="0 0 24 24"><defs><style>.a,.c,.d{fill:none;}.b{clip-path:url(#a);}.c,.d{stroke:#fff;stroke-miterlimit:10;}.d{stroke-linecap:round;}</style><clipPath id="a"><rect class="a" width="24" height="24"/></clipPath></defs><g class="b"><path class="c" d="M6.048,19.154a2.018,2.018,0,0,0,2.013,2.013h8.05a2.018,2.018,0,0,0,2.013-2.013V8.091H6.048ZM15.608,4.06l-.572-.573a1.484,1.484,0,0,0-1.048-.433h-3.8a1.484,1.484,0,0,0-1.048.433l-.572.573H6.178A1.135,1.135,0,0,0,5.042,5.2v.877H19.13V5.2A1.135,1.135,0,0,0,17.994,4.06Z" transform="translate(-0.214 -0.054)"/><line class="d" y2="7.621" transform="translate(8.751 10.622)"/><line class="d" y2="7.621" transform="translate(15.004 10.622)"/><line class="d" y2="7.621" transform="translate(11.872 10.622)"/><rect class="a" width="24" height="24"/></g></svg>