<svg xmlns="http://www.w3.org/2000/svg" xmlns:xlink="http://www.w3.org/1999/xlink" width="13.245" height="14" viewBox="0 0 13.245 14"><defs><style>.a,.c{fill:none;}.b{clip-path:url(#a);}.c{stroke:#fff;stroke-miterlimit:10;}</style><clipPath id="a"><rect class="a" width="13.245" height="14"/></clipPath></defs><g class="b"><path class="c" d="M14.813,9.188V3.5H7.5V9.188a3.25,3.25,0,0,0,3.25,3.25h0v2.438H9.938A1.625,1.625,0,0,0,8.313,16.5H14a1.625,1.625,0,0,0-1.625-1.625h-.812V12.438h0A3.25,3.25,0,0,0,14.813,9.188Z" transform="translate(-4.563 -3)"/><path class="c" d="M6.938,5.5H4.5V7.88a2.5,2.5,0,0,0,2.5,2.5H7" transform="translate(-4 -3.375)"/><path class="c" d="M16.558,5.5H19V7.88a2.5,2.5,0,0,1-2.5,2.5h0" transform="translate(-6.25 -3.375)"/></g></svg>