<svg xmlns="http://www.w3.org/2000/svg" width="22.38" height="23.698" viewBox="0 0 22.38 23.698"><defs><style>.a{fill:none;stroke:#f90;stroke-miterlimit:10;}</style></defs><g transform="translate(-39.5 -110.5)"><path class="a" d="M20.268,13.43V3.5H7.5v9.93a5.675,5.675,0,0,0,5.675,5.675h0v4.256H11.756A2.836,2.836,0,0,0,8.919,26.2h9.93a2.836,2.836,0,0,0-2.837-2.837H14.593V19.105h0A5.675,5.675,0,0,0,20.268,13.43Z" transform="translate(36.756 107.5)"/><path class="a" d="M8.756,5.5H4.5V9.655a4.357,4.357,0,0,0,4.357,4.357h0" transform="translate(35.5 108.337)"/><path class="a" d="M16.6,5.5h4.256V9.655A4.357,4.357,0,0,1,16.5,14.012h0" transform="translate(40.524 108.337)"/></g></svg>