<svg xmlns="http://www.w3.org/2000/svg" xmlns:xlink="http://www.w3.org/1999/xlink" width="24" height="24" viewBox="0 0 24 24"><defs><style>.a,.c{fill:none;}.b{clip-path:url(#a);}.c{stroke:#6e767e;stroke-miterlimit:10;}</style><clipPath id="a"><rect class="a" width="24" height="24"/></clipPath></defs><g class="b"><rect class="a" width="24" height="24"/><path class="c" d="M17.768,10.107l-.076-.027-.3-.71.032-.073c.9-2.042.839-2.1.689-2.251l-1.2-1.172a.319.319,0,0,0-.21-.083,7.687,7.687,0,0,0-2.046.8l-.071.032-.732-.3-.029-.073c-.835-2.066-.92-2.066-1.128-2.066H11c-.207,0-.3,0-1.075,2.07L9.9,6.338l-.728.3L9.1,6.606a11.231,11.231,0,0,0-2.085-.763.32.32,0,0,0-.21.082L5.605,7.1c-.153.15-.216.213.732,2.213l.034.074-.3.709L6,10.124c-2.114.817-2.114.9-2.114,1.109V12.9c0,.213,0,.3,2.118,1.061l.076.027.3.706-.032.072c-.9,2.044-.844,2.1-.691,2.251l1.2,1.174a.331.331,0,0,0,.211.083,7.7,7.7,0,0,0,2.047-.8l.071-.034.732.3.029.074c.835,2.065.92,2.065,1.128,2.065h1.7c.213,0,.3,0,1.075-2.071l.029-.075.73-.3.069.028a11.122,11.122,0,0,0,2.082.764.319.319,0,0,0,.211-.082l1.2-1.178c.152-.151.215-.213-.734-2.21l-.036-.075.3-.706.071-.028c2.118-.821,2.118-.9,2.118-1.114V11.164C19.887,10.951,19.887,10.863,17.768,10.107Zm-5.881,4.619a2.7,2.7,0,1,1,2.748-2.695A2.726,2.726,0,0,1,11.887,14.726Z" transform="translate(0.113 -0.193)"/></g></svg>