<svg xmlns="http://www.w3.org/2000/svg" width="59.983" height="61.015" viewBox="0 0 59.983 61.015"><defs><style>.a{fill:#003cff;fill-rule:evenodd;}</style></defs><path class="a" d="M250.052,860.31a2.04,2.04,0,0,0-2.041-2.04h-7.98a2.026,2.026,0,0,0-2.026,2.026v26.17a2.026,2.026,0,0,0,2.026,2.026h7.98a2.04,2.04,0,0,0,2.041-2.04Zm45.868,9.377.415-.511a6.594,6.594,0,0,0,1.652-4.5,6.791,6.791,0,0,0-1.536-3.9l-.416-.524.254-.613a5.811,5.811,0,0,0-1.437-6.857c-1.717-1.512-4.606-2.279-8.586-2.279-.5,0-1.027.012-1.564.037a43.893,43.893,0,0,0-6.542.808l-.142.028h-.024c-.593.1-1.249.235-2,.4l-1.371.295-.088-1.354c-.073-1.125.176-3.449,1.772-8.129,1.8-5.275,1.733-9.246-.187-11.8A7.634,7.634,0,0,0,270.11,828a2.286,2.286,0,0,0-1.737.762c-1.281,1.437-.6,4.314-.938,5.966-.449,2.069-2.412,12.493-11.571,19.889a5.9,5.9,0,0,0-2.547,3.642c-.577,1.321-.637,28.053-.046,28.695s2.917.919,2.917.919a143.665,143.665,0,0,0,16.124.974c.667,0,1.33-.006,1.971-.018h.114c1.676.122,3.149.182,4.5.182a30.693,30.693,0,0,0,6.129-.531c3.842-.788,6.439-2.316,7.717-4.541a6.717,6.717,0,0,0,.794-4.348l-.089-.609.472-.413a7.184,7.184,0,0,0,2.72-5.956,7.577,7.577,0,0,0-.489-2.316Z" transform="translate(-238.005 -827.996)"/></svg>