<svg xmlns="http://www.w3.org/2000/svg" xmlns:xlink="http://www.w3.org/1999/xlink" width="24" height="24" viewBox="0 0 24 24"><defs><style>.a{fill:none;}.b{clip-path:url(#a);}</style><clipPath id="a"><rect class="a" width="24" height="24"/></clipPath></defs><g class="b"><g transform="translate(5 2)"><path d="M832.1,458a.5.5,0,1,1,0-1h3.4v-1.625A7,7,0,0,1,829,448.4a.5.5,0,1,1,1,0,6,6,0,1,0,12,0,.5.5,0,1,1,1,0,7.005,7.005,0,0,1-6.5,6.975V457h3.4a.5.5,0,1,1,0,1Zm-.5-9.4v-6.2a4.4,4.4,0,0,1,8.8,0v6.2a4.4,4.4,0,1,1-8.8,0Zm1-6.2v6.2a3.4,3.4,0,0,0,6.8,0v-6.2a3.4,3.4,0,0,0-6.8,0Z" transform="translate(-829 -438)"/></g><rect class="a" width="24" height="24"/></g></svg>